<?xml version="1.0" encoding="UTF-8"?>
<svg id="_图层_1" data-name="图层 1" xmlns="http://www.w3.org/2000/svg" viewBox="0 0 2453.42 430.14">
  <defs>
    <style>
      .cls-1 {
        fill: none;
      }

      .cls-2 {
        fill: #ff9198;
      }

      .cls-3 {
        fill: #ddb28c;
      }
    </style>
  </defs>
  <g>
    <rect class="cls-1" y="15.39" width="655.89" height="160.27"/>
    <path class="cls-3" d="M10.5,79.16c0-1.31.47-2.43,1.42-3.36.94-.93,2.08-1.4,3.4-1.4l3.4-.14c1.32,0,2.45.47,3.4,1.4.94.93,1.42,2.1,1.42,3.5v55.3c0,1.31-.33,2.78-.99,4.41-.66,1.63-1.46,2.87-2.4,3.71l-3.68,3.64c-.94,1.03-2.08,1.87-3.4,2.52-1.32.65-2.36.98-3.11.98-.84,0-1.56-.49-2.17-1.47-.61-.98-.91-2.12-.91-3.43v-3.22c0-1.4.16-2.57.49-3.5.33-.93.77-1.4,1.33-1.4s1-.47,1.33-1.4c.33-.93.49-2.1.49-3.5v-52.64ZM22.82,27.5c.93,1.03,1.4,2.19,1.4,3.5s-.47,2.47-1.4,3.5l-2.55,2.1c-.85,1.03-1.96,1.54-3.33,1.54s-2.53-.51-3.47-1.54l-2.13-2.1c-1.03-1.03-1.54-2.19-1.54-3.5s.51-2.47,1.54-3.5l2.13-2.24c.94-1.03,2.1-1.54,3.47-1.54s2.48.51,3.33,1.54l2.55,2.24ZM22.82,54.1c.93,1.03,1.4,2.19,1.4,3.5s-.47,2.47-1.4,3.5l-2.55,2.24c-.85,1.03-1.96,1.54-3.33,1.54s-2.53-.51-3.47-1.54l-2.13-2.24c-1.03-1.03-1.54-2.19-1.54-3.5s.51-2.47,1.54-3.5l2.13-2.24c.94-1.03,2.1-1.54,3.47-1.54s2.48.51,3.33,1.54l2.55,2.24ZM54.88,136.7c1.31,0,2.45-.47,3.43-1.4.98-.93,1.47-2.1,1.47-3.5V38.98c0-1.31-.49-2.45-1.47-3.43s-2.12-1.47-3.43-1.47h-17.22c-1.31,0-2.43-.47-3.36-1.42-.93-.94-1.4-2.12-1.4-3.54v-3.25c0-1.32.47-2.45,1.4-3.4.93-.94,2.05-1.42,3.36-1.42h57.96c1.31,0,2.43.47,3.36,1.42.93.95,1.4,2.08,1.4,3.4v3.25c0,1.42-.47,2.59-1.4,3.54-.93.95-2.05,1.42-3.36,1.42h-17.92c-1.31,0-2.45.49-3.43,1.47s-1.47,2.12-1.47,3.43v92.82c0,1.4.49,2.57,1.47,3.5.98.93,2.12,1.4,3.43,1.4h17.92c1.31,0,2.43.47,3.36,1.4.93.93,1.4,2.1,1.4,3.5v3.22c0,1.31-.47,2.45-1.4,3.43-.93.98-2.05,1.47-3.36,1.47h-57.96c-1.31,0-2.43-.49-3.36-1.47-.93-.98-1.4-2.12-1.4-3.43v-3.22c0-1.4.47-2.57,1.4-3.5.93-.93,2.05-1.4,3.36-1.4h17.22Z"/>
    <path class="cls-3" d="M187.71,34.08c-1.3,0-2.44.49-3.41,1.46-.98.97-1.46,2.1-1.46,3.4v6.52c0,1.29.49,2.43,1.46,3.4.97.97,2.11,1.46,3.41,1.46h14.9c1.3,0,2.41.49,3.34,1.47.93.98,1.39,2.13,1.39,3.43v79.35c0,1.31-.33,2.78-.98,4.42-.65,1.63-1.45,2.87-2.38,3.71l-3.5,3.51c-1.03,1.03-2.36,1.87-3.99,2.52-1.63.65-3.1.98-4.41.98h-73.36c-1.31,0-2.43-.19-3.36-.56-.93-.38-1.4-.84-1.4-1.4V55.23c0-1.31.47-2.45,1.4-3.43.93-.98,2.05-1.47,3.36-1.47h14.98c1.4,0,2.59-.49,3.57-1.46.98-.97,1.47-2.11,1.47-3.4v-6.52c0-1.29-.49-2.43-1.47-3.4s-2.17-1.46-3.57-1.46h-14.98c-1.31,0-2.43-.47-3.36-1.42-.93-.94-1.4-2.12-1.4-3.54v-3.25c0-1.32.47-2.45,1.4-3.4.93-.94,2.05-1.42,3.36-1.42h83.86c1.31,0,2.43.47,3.36,1.42.93.95,1.4,2.08,1.4,3.4v3.25c0,1.42-.47,2.59-1.39,3.54-.93.95-2.04,1.42-3.34,1.42h-14.9ZM189.42,136.7c1.4,0,2.57-.47,3.5-1.4.93-.93,1.4-2.1,1.4-3.5v-1.82c0-1.31-.47-2.43-1.4-3.36-.93-.93-2.1-1.4-3.5-1.4h-4.34c-1.4,0-2.92-.35-4.55-1.05-1.63-.7-2.96-1.52-3.99-2.45l-3.22-3.5c-1.03-1.03-1.87-2.36-2.52-3.99-.65-1.63-.98-3.1-.98-4.41v-41.58c0-1.31-.49-2.45-1.48-3.43-.99-.98-2.19-1.47-3.6-1.47h-8.18c-1.32,0-2.45.49-3.39,1.47-.94.98-1.41,2.12-1.41,3.43v41.58c0,1.31-.35,2.78-1.05,4.41-.7,1.63-1.56,2.96-2.57,3.99l-3.48,3.5c-1.02.93-2.32,1.75-3.9,2.45s-3.06,1.05-4.45,1.05h-4.46c-1.39,0-2.55.47-3.48,1.4-.93.93-1.39,2.05-1.39,3.36v1.82c0,1.4.47,2.57,1.4,3.5s2.1,1.4,3.5,1.4h57.54ZM131.88,63.34c-1.4,0-2.57.49-3.5,1.47-.93.98-1.4,2.13-1.4,3.44v39.17c0,1.31.47,2.43,1.4,3.37.93.94,2.1,1.4,3.5,1.4h1.82c1.4,0,2.59-.47,3.57-1.4.98-.94,1.47-2.06,1.47-3.37v-39.17c0-1.31-.49-2.45-1.47-3.44-.98-.98-2.17-1.47-3.57-1.47h-1.82ZM169.82,38.94c0-1.29-.49-2.43-1.48-3.4-.99-.97-2.19-1.46-3.6-1.46h-8.18c-1.32,0-2.45.49-3.39,1.46-.94.97-1.41,2.1-1.41,3.4v6.52c0,1.29.47,2.43,1.41,3.4.94.97,2.07,1.46,3.39,1.46h8.18c1.41,0,2.61-.49,3.6-1.46.99-.97,1.48-2.11,1.48-3.4v-6.52ZM187.68,63.34c-1.29,0-2.42.49-3.39,1.47-.97.98-1.45,2.13-1.45,3.44v39.17c0,1.31.48,2.43,1.45,3.37.97.94,2.1,1.4,3.39,1.4h1.8c1.38,0,2.53-.47,3.46-1.4.92-.94,1.38-2.06,1.38-3.37v-39.17c0-1.31-.46-2.45-1.38-3.44-.92-.98-2.07-1.47-3.46-1.47h-1.8Z"/>
    <path class="cls-3" d="M223.44,136.7c.75,0,1.56-.42,2.45-1.26.89-.84,1.61-1.87,2.17-3.08l1.26-2.8c.56-1.31.56-2.4,0-3.29-.56-.89-1.49-1.33-2.8-1.33h-.7c-1.31,0-2.43-.47-3.36-1.4-.93-.93-1.4-2.05-1.4-3.36V26.1c0-1.31.47-2.45,1.4-3.43.94-.98,2.06-1.47,3.37-1.47h31.04c1.31,0,2.44.49,3.37,1.47.94.98,1.4,2.12,1.4,3.43v94.08c0,1.31-.47,2.43-1.4,3.36-.93.93-2.05,1.4-3.36,1.4h-.56c-1.4,0-2.38.44-2.94,1.33-.56.89-.51,1.98.14,3.29l.98,2.8c.65,1.21,1.4,2.24,2.24,3.08s1.63,1.26,2.38,1.26,1.35.47,1.82,1.4c.47.93.7,2.1.7,3.5v3.22c0,1.31-.47,2.45-1.4,3.43-.94.98-2.06,1.47-3.37,1.47h-1.4c-1.31,0-2.67-.42-4.07-1.26s-2.39-1.91-2.95-3.22l-4.92-10.36c-.66-1.21-1.38-1.82-2.18-1.82s-1.52.61-2.18,1.82l-4.78,10.36c-.75,1.31-1.8,2.38-3.16,3.22-1.36.84-2.69,1.26-4,1.26h-1.4c-1.31,0-2.44-.49-3.37-1.47-.94-.98-1.4-2.12-1.4-3.43v-3.22c0-1.4.23-2.57.7-3.5.47-.93,1.03-1.4,1.68-1.4ZM232.82,116.96c0,1.31.14,2.12.42,2.45.28.33.65-.07,1.12-1.19.47-1.03.86-2.36,1.19-3.99.33-1.63.49-3.15.49-4.55v-60.62c0-1.31.49-2.43,1.47-3.36.98-.93,2.08-1.4,3.29-1.4h.7c1.4,0,2.57.47,3.5,1.4.93.93,1.4,2.05,1.4,3.36v60.62c0,1.4.19,2.94.56,4.62.37,1.68.79,3.03,1.26,4.06.47,1.03.86,1.42,1.19,1.19.33-.23.49-1,.49-2.31V39.12c0-1.4-.47-2.57-1.4-3.5-.93-.93-2.1-1.4-3.5-1.4h-7.42c-1.31,0-2.43.47-3.36,1.4-.93.93-1.4,2.1-1.4,3.5v77.84ZM285.46,51.16c1.4,0,2.5.47,3.29,1.4.79.93,1.14,2.1,1.05,3.5l-9.24,88.76c-.09,1.31-.68,2.45-1.75,3.43-1.07.98-2.31,1.47-3.71,1.47h-5.88c-1.31,0-2.45-.49-3.43-1.47s-1.47-2.12-1.47-3.43v-3.22c0-1.4.26-2.57.77-3.5.51-.93,1.14-1.4,1.89-1.4s1.45-.47,2.1-1.4c.65-.93,1.07-2.1,1.26-3.5l7.98-75.74c.19-1.4.79-2.57,1.82-3.5,1.03-.93,2.19-1.4,3.5-1.4h1.82ZM308.49,22.46c.98.84,1.47,1.91,1.47,3.22s.23,2.4.7,3.29c.47.89.98,1.33,1.54,1.33.65,0,1.19.47,1.61,1.4.42.93.63,2.1.63,3.5v3.22c0,1.31-.21,2.45-.63,3.43s-.96,1.47-1.61,1.47c-.56,0-1.07.47-1.54,1.4-.47.93-.7,2.1-.7,3.5v96.6c0,1.31-.49,2.45-1.47,3.43s-2.12,1.47-3.43,1.47h-13.58c-1.4,0-2.57-.49-3.5-1.47-.93-.98-1.4-2.12-1.4-3.43v-3.22c0-1.4.47-2.57,1.4-3.5.93-.93,2.1-1.4,3.5-1.4h.7c1.31,0,2.45-.47,3.43-1.4.98-.93,1.47-2.1,1.47-3.5V48.22c0-1.4-.49-2.57-1.47-3.5-.98-.93-2.12-1.4-3.43-1.4h-22.82c-1.31,0-2.43-.49-3.36-1.47-.93-.98-1.4-2.12-1.4-3.43v-3.22c0-1.4.47-2.57,1.4-3.5.93-.93,2.05-1.4,3.36-1.4h22.82c1.31,0,2.45-.44,3.43-1.33.98-.89,1.47-1.98,1.47-3.29s.47-2.38,1.4-3.22c.93-.84,2.05-1.26,3.36-1.26h3.22c1.31,0,2.45.42,3.43,1.26Z"/>
    <path class="cls-3" d="M328.16,114.02c0-1.4.19-3.04.56-4.91.37-1.87.79-3.41,1.26-4.63l9.66-23.27c.47-1.31.37-2.38-.28-3.22-.65-.84-1.63-1.26-2.94-1.26h-3.5c-1.31,0-2.43-.49-3.36-1.47-.93-.98-1.4-2.13-1.4-3.43v-4.63c0-1.31.16-2.9.49-4.77.33-1.87.72-3.46,1.19-4.77l11.62-32.11c.56-1.31,1.49-2.38,2.8-3.22,1.31-.84,2.61-1.26,3.92-1.26h3.36c1.31,0,2.29.42,2.94,1.26.65.84.75,1.91.28,3.22l-12.6,33.46c-.47,1.31-.42,2.4.14,3.29.56.89,1.49,1.33,2.8,1.33s2.64.4,3.99,1.19c1.35.79,2.4,1.84,3.15,3.15l1.26,1.68c.75,1.12,1.21,2.52,1.4,4.2.19,1.68,0,3.17-.56,4.48l-8.96,23.52c-.65,1.31-.68,2.43-.07,3.36.61.93,1.61,1.4,3.01,1.4h1.54c1.4,0,2.57.47,3.5,1.42.93.95,1.4,2.12,1.4,3.54v3.12c0,1.32-.47,2.48-1.4,3.47-.93.99-2.1,1.49-3.5,1.49h-16.94c-1.31,0-2.43-.49-3.36-1.47-.93-.98-1.4-2.13-1.4-3.43v-.7ZM328.16,141.32c0-1.31.47-2.43,1.4-3.36.93-.93,2.05-1.4,3.36-1.4h16.94c1.4,0,2.57.47,3.5,1.4s1.4,2.05,1.4,3.36v3.22c0,1.4-.47,2.57-1.4,3.5-.93.93-2.1,1.4-3.5,1.4h-16.94c-1.31,0-2.43-.47-3.36-1.4-.93-.93-1.4-2.1-1.4-3.5v-3.22ZM404.6,43.15c.93-1.02,1.75-2.11,2.45-3.28.7-1.16,1.05-2.12,1.05-2.86s-.49-1.42-1.47-2.02c-.98-.6-2.08-.91-3.29-.91h-32.2c-1.31,0-2.47-.47-3.5-1.42-1.03-.94-1.54-2.12-1.54-3.54v-3.25c0-1.32.51-2.45,1.54-3.4,1.03-.94,2.19-1.42,3.5-1.42h44.94c1.4,0,2.59.47,3.57,1.4.98.93,1.47,2.05,1.47,3.36v14c0,1.31-.37,2.78-1.12,4.41-.75,1.63-1.59,2.92-2.52,3.85l-12.18,11.2c-1.03.93-1.54,2.03-1.54,3.29s.51,2.4,1.54,3.43l1.54,1.54c.93.93,2.24,1.73,3.92,2.38,1.68.65,3.17.98,4.48.98h.84c1.4,0,2.59.5,3.57,1.49.98.99,1.47,2.15,1.47,3.46v3.25c0,1.32-.49,2.45-1.47,3.4-.98.94-2.17,1.42-3.57,1.42h-5.32c-1.31,0-2.82-.3-4.55-.91-1.73-.61-3.1-1.38-4.13-2.31l-6.44-5.88c-1.03-.84-2.24-1.26-3.64-1.26s-2.61.47-3.64,1.4l-6.16,5.74c-.93.84-2.24,1.59-3.92,2.24-1.68.65-3.22.98-4.62.98h-5.18c-1.4,0-2.59-.47-3.57-1.42-.98-.94-1.47-2.08-1.47-3.4v-3.25c0-1.32.49-2.47,1.47-3.46.98-.99,2.17-1.49,3.57-1.49h.84c1.31,0,2.78-.32,4.41-.98,1.63-.65,2.96-1.44,3.99-2.37l26.88-24.41ZM381.78,136.7c1.31,0,2.43-.47,3.36-1.4.93-.93,1.4-2.1,1.4-3.5v-22.4c0-1.31-.47-2.45-1.4-3.43-.93-.98-2.05-1.47-3.36-1.47h-13.3c-1.4,0-2.59-.47-3.57-1.42-.98-.94-1.47-2.08-1.47-3.4v-3.4c0-1.32.49-2.45,1.47-3.4.98-.94,2.17-1.42,3.57-1.42h47.88c1.4,0,2.57.47,3.5,1.42.93.94,1.4,2.08,1.4,3.4v3.4c0,1.32-.47,2.45-1.4,3.4-.93.95-2.1,1.42-3.5,1.42h-11.76c-1.4,0-2.59.49-3.57,1.47-.98.98-1.47,2.12-1.47,3.43v22.4c0,1.4.49,2.57,1.47,3.5.98.93,2.17,1.4,3.57,1.4h11.76c1.4,0,2.57.47,3.5,1.4s1.4,2.1,1.4,3.5v3.22c0,1.31-.47,2.45-1.4,3.43-.93.98-2.1,1.47-3.5,1.47h-47.88c-1.4,0-2.59-.49-3.57-1.47s-1.47-2.12-1.47-3.43v-3.22c0-1.4.49-2.57,1.47-3.5.98-.93,2.17-1.4,3.57-1.4h13.3Z"/>
    <path class="cls-3" d="M435.26,45c0-1.31.47-2.47,1.4-3.5.93-1.03,2.05-1.54,3.36-1.54h30.52c1.31,0,2.47-.47,3.5-1.4,1.03-.93,1.54-2.05,1.54-3.36v-9.24c0-1.31.47-2.43,1.42-3.36.94-.93,2.08-1.4,3.4-1.4h3.25c1.32,0,2.47.47,3.46,1.4.99.93,1.49,2.05,1.49,3.36v9.24c0,1.31.49,2.43,1.47,3.36.98.93,2.12,1.4,3.43,1.4h30.52c1.31,0,2.43.51,3.36,1.54.93,1.03,1.4,2.19,1.4,3.5v3.22c0,1.31-.47,2.43-1.4,3.36s-2.05,1.4-3.36,1.4h-30.52c-1.31,0-2.45.49-3.43,1.47-.98.98-1.47,2.08-1.47,3.29v6.72c0,1.31.19,2.87.56,4.69.37,1.82.84,3.38,1.4,4.69l24.08,58.52c.47,1.21,1.38,2.24,2.73,3.08,1.35.84,2.73,1.26,4.13,1.26h2.52c1.31,0,2.43.47,3.36,1.4.93.93,1.4,2.1,1.4,3.5v3.22c0,1.31-.47,2.45-1.4,3.43-.93.98-2.05,1.47-3.36,1.47h-12.04c-1.4,0-2.75-.44-4.06-1.33-1.31-.89-2.24-1.94-2.8-3.15l-21.19-50.68c-.57-1.31-1.2-1.96-1.91-1.96s-1.35.65-1.91,1.96l-21.19,50.68c-.47,1.21-1.35,2.26-2.66,3.15-1.31.89-2.66,1.33-4.06,1.33h-11.9c-1.4,0-2.57-.49-3.5-1.47-.93-.98-1.4-2.12-1.4-3.43v-3.22c0-1.4.47-2.57,1.4-3.5.93-.93,2.1-1.4,3.5-1.4h2.24c1.4,0,2.78-.42,4.13-1.26,1.35-.84,2.26-1.87,2.73-3.08l24.08-58.52c.56-1.31,1.05-2.87,1.47-4.69.42-1.82.63-3.38.63-4.69v-6.72c0-1.21-.51-2.31-1.54-3.29-1.03-.98-2.19-1.47-3.5-1.47h-30.52c-1.31,0-2.43-.47-3.36-1.4-.93-.93-1.4-2.05-1.4-3.36v-3.22Z"/>
    <path class="cls-3" d="M557.62,43.74c-1.31,0-2.79-.33-4.44-.98-1.65-.65-2.95-1.49-3.89-2.52l-3.54-3.22c-.95-1.03-1.75-2.36-2.41-3.99-.66-1.63-.99-3.15-.99-4.55v-2.52c0-1.31.47-2.43,1.42-3.36.94-.93,2.08-1.4,3.4-1.4h3.26c1.41,0,2.59.46,3.54,1.38.94.92,1.42,2.02,1.42,3.31,0,1.38.47,2.53,1.4,3.45.93.92,2.05,1.38,3.36,1.38h5.18c1.31,0,2.43.5,3.36,1.49.93.99,1.4,2.19,1.4,3.61v2.97c0,1.42-.47,2.59-1.4,3.54-.93.94-2.05,1.42-3.36,1.42h-7.7ZM555.38,68.02c0,1.38-.47,2.56-1.42,3.53-.95.97-2.12,1.45-3.54,1.45h-3.26c-1.32,0-2.45-.49-3.4-1.47-.95-.98-1.42-2.17-1.42-3.57v-15.4c0-1.4.47-2.59,1.4-3.57.93-.98,2.06-1.47,3.36-1.47h83.01c1.31,0,2.45.49,3.43,1.47.98.98,1.47,2.17,1.47,3.57v15.4c0,1.4-.5,2.59-1.49,3.57-.99.98-2.15,1.47-3.47,1.47h-3.11c-1.42,0-2.59-.48-3.54-1.45-.95-.97-1.42-2.15-1.42-3.53v-2.49c0-1.38-.47-2.56-1.4-3.53-.93-.97-2.1-1.45-3.49-1.45h-57c-1.3,0-2.42.49-3.35,1.45-.93.97-1.4,2.15-1.4,3.53v2.49ZM596.82,108.77c.93-.51,1.4-1.14,1.4-1.89s.37-1.66,1.12-2.73c.75-1.07,1.63-1.98,2.66-2.73l10.36-7.98c1.12-.75,1.56-1.44,1.33-2.05-.23-.61-1.05-.92-2.45-.92h-63.84c-1.4,0-2.57-.47-3.5-1.42-.93-.94-1.4-2.12-1.4-3.54v-3.11c0-1.32.47-2.47,1.4-3.45.93-.98,2.1-1.47,3.5-1.47h82.74c1.31,0,2.45.49,3.43,1.47.98.98,1.47,2.13,1.47,3.44v5.77c0,1.31-.37,2.75-1.12,4.29-.75,1.55-1.63,2.74-2.66,3.59l-13.72,10.69c-1.21.75-1.7,1.41-1.47,1.97.23.56,1.05.84,2.45.84h11.62c1.31,0,2.45.49,3.43,1.47s1.47,2.12,1.47,3.43v3.08c0,1.4-.49,2.57-1.47,3.5-.98.93-2.12,1.4-3.43,1.4h-14.12c-1.32,0-2.47.49-3.45,1.47s-1.47,2.12-1.47,3.43v7.28c0,1.31-.33,2.78-.98,4.41-.65,1.63-1.49,2.87-2.52,3.71l-3.5,3.5c-1.03,1.03-2.33,1.87-3.92,2.52-1.59.65-3.08.98-4.48.98h-42.14c-1.31,0-2.43-.49-3.36-1.47-.93-.98-1.4-2.12-1.4-3.43v-3.08c0-1.4.47-2.57,1.4-3.5.93-.93,2.05-1.4,3.36-1.4h39.76c1.4,0,2.57-.47,3.5-1.4.93-.93,1.4-2.1,1.4-3.5v-4.62c0-1.31-.47-2.45-1.4-3.43-.93-.98-2.1-1.47-3.5-1.47h-45.92c-1.4,0-2.57-.47-3.5-1.4-.93-.93-1.4-2.1-1.4-3.5v-3.08c0-1.31.47-2.45,1.4-3.43.93-.98,2.1-1.47,3.5-1.47h45.92c1.4,0,2.57-.26,3.5-.77ZM589.82,43.74c-1.4,0-2.89-.33-4.48-.98-1.59-.65-2.89-1.49-3.92-2.52l-3.5-3.22c-.84-1.03-1.61-2.36-2.31-3.99-.7-1.63-1.05-3.15-1.05-4.55v-2.52c0-1.31.47-2.43,1.4-3.36s2.05-1.4,3.36-1.4h3.36c1.31,0,2.43.46,3.36,1.38.93.92,1.4,2.02,1.4,3.31,0,1.38.47,2.53,1.4,3.45.93.92,2.05,1.38,3.36,1.38h5.18c1.31,0,2.43.5,3.36,1.49.93.99,1.4,2.19,1.4,3.61v2.97c0,1.42-.47,2.59-1.4,3.54-.93.94-2.05,1.42-3.36,1.42h-7.56ZM627.96,40.24c-.85,1.03-2.1,1.87-3.75,2.52-1.65.65-3.13.98-4.43.98h-6.44c-1.4,0-2.57-.47-3.5-1.42-.93-.94-1.4-2.12-1.4-3.54v-2.97c0-1.41.47-2.62,1.4-3.61.93-.99,2.1-1.49,3.5-1.49h3.78c1.4,0,2.57-.46,3.5-1.38.93-.92,1.4-2.07,1.4-3.45,0-1.29.47-2.39,1.42-3.31.94-.92,2.12-1.38,3.54-1.38h3.11c1.32,0,2.47.47,3.47,1.4.99.93,1.49,2.05,1.49,3.36v2.52c0,1.4-.33,2.92-.99,4.55-.66,1.63-1.51,2.96-2.55,3.99l-3.54,3.22Z"/>
  </g>
  <g>
    <rect class="cls-1" x="683.56" y="0" width="1769.86" height="430.14"/>
    <path class="cls-2" d="M737.52,351.31c0,3.54-1.27,6.65-3.8,9.31-2.54,2.66-5.7,3.99-9.5,3.99h-9.12c-3.55,0-6.59-1.34-9.12-3.99-2.54-2.67-3.8-5.77-3.8-9.32V28.32c0-3.55,1.26-6.59,3.8-9.13,2.53-2.54,5.57-3.81,9.12-3.81h227.62c3.54,0,6.58,1.27,9.12,3.81,2.53,2.54,3.8,5.58,3.8,9.13v294.82c0,3.55-.89,7.54-2.66,11.99-1.78,4.44-3.93,7.8-6.46,10.08l-9.5,9.89c-2.79,2.79-6.4,5.07-10.83,6.85-4.44,1.77-8.43,2.66-11.97,2.66h-17.86c-3.55,0-6.65-1.33-9.31-3.99-2.66-2.66-3.99-5.76-3.99-9.31v-8.74c0-3.8,1.33-6.97,3.99-9.5,2.66-2.54,5.76-3.8,9.31-3.8h10.64c3.8,0,6.96-1.27,9.5-3.8,2.53-2.54,3.8-5.7,3.8-9.5V64.03c0-3.54-1.27-6.65-3.8-9.31-2.54-2.66-5.7-3.99-9.5-3.99h-156.18c-3.8,0-6.97,1.33-9.5,3.99-2.54,2.66-3.8,5.77-3.8,9.31v287.28ZM747.78,292.41c1.52,0,2.97-1.33,4.37-3.99,1.39-2.66,2.59-5.76,3.61-9.31l10.64-60.42c.25-3.54.31-7.92.19-13.11-.13-5.19-.45-9.56-.95-13.11l-20.52-101.46c-.76-3.8-.07-7.03,2.09-9.69,2.15-2.66,5-3.99,8.55-3.99h5.32c3.8,0,7.15,1.33,10.07,3.99,2.91,2.66,4.88,5.89,5.89,9.69l3.42,17.48c.5,3.55,1.26,5.32,2.28,5.32s1.77-1.77,2.28-5.32l3.04-17.48c.76-3.8,2.66-7.03,5.7-9.69,3.04-2.66,6.33-3.99,9.88-3.99h5.32c3.54,0,6.4,1.33,8.55,3.99,2.15,2.66,2.85,5.89,2.09,9.69l-18.62,100.7c-.76,3.55-1.08,7.92-.95,13.11.12,5.2.44,9.57.95,13.11l11.78,61.18c.5,3.55,1.58,6.65,3.23,9.31,1.64,2.66,3.1,3.99,4.37,3.99s2.47,1.27,3.61,3.8c1.14,2.53,1.71,5.7,1.71,9.5v4.94c0,3.54-1.33,6.65-3.99,9.31-2.66,2.66-5.89,3.99-9.69,3.99h-6.84c-3.55,0-6.91-1.33-10.07-3.99-3.17-2.66-5.26-5.76-6.27-9.31l-2.28-13.68c-.76-3.54-1.65-5.32-2.66-5.32s-1.9,1.78-2.66,5.32l-2.28,13.68c-1.02,3.54-2.98,6.65-5.89,9.31-2.92,2.66-6.27,3.99-10.07,3.99h-7.22c-3.55,0-6.65-1.33-9.31-3.99-2.66-2.66-3.99-5.76-3.99-9.31v-4.94c0-3.8.57-6.97,1.71-9.5,1.14-2.53,2.34-3.8,3.61-3.8ZM838.22,292.41c1.26,0,2.66-1.33,4.18-3.99,1.52-2.66,2.78-5.76,3.8-9.31l11.4-62.32c.76-3.54,1.14-7.85,1.14-12.92s-.38-9.5-1.14-13.3l-18.24-99.56c-.76-3.8-.06-7.03,2.09-9.69,2.15-2.66,5.13-3.99,8.93-3.99h4.94c3.54,0,6.9,1.33,10.07,3.99,3.16,2.66,5.13,5.89,5.89,9.69l2.66,16.34c.5,3.8,1.26,5.7,2.28,5.7s1.77-1.9,2.28-5.7l3.04-16.34c.76-3.8,2.72-7.03,5.89-9.69,3.16-2.66,6.52-3.99,10.07-3.99h4.94c3.8,0,6.77,1.33,8.93,3.99,2.15,2.66,2.59,5.89,1.33,9.69l-19.38,100.7c-.51,3.55-.89,7.79-1.14,12.73-.26,4.94,0,9.31.76,13.11l10.26,61.56c.76,3.55,1.9,6.65,3.42,9.31,1.52,2.66,2.91,3.99,4.18,3.99s2.47,1.27,3.61,3.8c1.14,2.53,1.71,5.7,1.71,9.5v4.94c0,3.54-1.33,6.65-3.99,9.31-2.66,2.66-5.89,3.99-9.69,3.99h-6.84c-3.55,0-6.84-1.33-9.88-3.99-3.04-2.66-4.94-5.76-5.7-9.31l-2.66-14.06c-1.52-7.6-3.29-7.6-5.32,0l-2.66,14.06c-1.02,3.54-2.98,6.65-5.89,9.31-2.92,2.66-6.15,3.99-9.69,3.99h-7.22c-3.55,0-6.65-1.33-9.31-3.99-2.66-2.66-3.99-5.76-3.99-9.31v-4.94c0-3.8.44-6.97,1.33-9.5.88-2.53,2.09-3.8,3.61-3.8Z"/>
    <path class="cls-2" d="M992.88,268.09c0-3.54.44-7.79,1.33-12.73.88-4.94,2.09-9.18,3.61-12.73l26.22-63.46c1.27-3.54,1.01-6.52-.76-8.93-1.78-2.4-4.44-3.61-7.98-3.61h-9.5c-3.55,0-6.59-1.26-9.12-3.8-2.54-2.53-3.8-5.57-3.8-9.12v-26.98c0-3.54.31-7.85.95-12.92.63-5.06,1.46-9.37,2.47-12.92l20.52-72.2c1.01-3.54,3.16-6.58,6.46-9.12,3.29-2.53,6.71-3.8,10.26-3.8h12.92c3.54,0,6.2,1.26,7.98,3.79,1.77,2.53,2.28,5.56,1.52,9.1l-25.84,89.92c-.76,3.54-.26,6.57,1.52,9.1,1.77,2.53,4.43,3.79,7.98,3.79s7.15,1.07,10.83,3.22c3.67,2.15,6.52,4.87,8.55,8.16l3.04,4.93c2.02,2.78,3.29,6.57,3.8,11.38.5,4.81-.13,8.98-1.9,12.52l-23.94,63.73c-1.78,3.54-1.84,6.52-.19,8.92,1.65,2.4,4.37,3.6,8.17,3.6h4.56c3.54,0,6.65,1.35,9.31,4.04,2.66,2.69,3.99,5.82,3.99,9.4v8.46c0,3.84-1.33,7.04-3.99,9.6-2.66,2.56-5.77,3.84-9.31,3.84h-46.74c-3.55,0-6.59-1.26-9.12-3.8-2.54-2.53-3.8-5.7-3.8-9.5v-1.9ZM992.88,342.57c0-3.8,1.26-6.97,3.8-9.5,2.53-2.54,5.57-3.8,9.12-3.8h46.74c3.54,0,6.65,1.26,9.31,3.8,2.66,2.53,3.99,5.7,3.99,9.5v8.74c0,3.54-1.33,6.65-3.99,9.31-2.66,2.66-5.77,3.99-9.31,3.99h-46.74c-3.55,0-6.59-1.33-9.12-3.99-2.54-2.66-3.8-5.76-3.8-9.31v-8.74ZM1078.38,27.46c0-3.27,1.25-6.03,3.76-8.29,2.51-2.26,5.51-3.4,9.02-3.4h8.65c3.5,0,6.51.83,9.02,2.47,2.51,1.65,3.76,3.61,3.76,5.89,0,2.03,1.4,3.8,4.19,5.32,2.79,1.52,5.97,2.28,9.53,2.28h107.08c3.55,0,6.6,1.4,9.14,4.18,2.54,2.79,3.81,5.96,3.81,9.5v47.5c0,3.55-1.02,7.48-3.04,11.78-2.03,4.31-4.56,7.6-7.6,9.88l-32.3,25.46c-2.79,2.54-4.25,5.45-4.37,8.74-.13,3.3,1.33,6.08,4.37,8.36,2.53,2.28,6.01,4.25,10.45,5.89,4.43,1.65,8.55,2.47,12.35,2.47h7.22c3.54,0,6.58,1.27,9.12,3.8,2.53,2.54,3.8,5.7,3.8,9.5v12.54c0,3.55-1.27,6.59-3.8,9.12s-5.57,3.8-9.12,3.8h-17.1c-3.8,0-7.98-.82-12.54-2.47-4.56-1.64-8.24-3.73-11.02-6.27l-18.24-15.58c-2.79-2.53-6.15-3.8-10.07-3.8s-7.41,1.14-10.45,3.42l-20.52,16.34c-3.04,2.28-6.84,4.25-11.4,5.89-4.56,1.65-8.74,2.47-12.54,2.47h-17.1c-3.55,0-6.65-1.26-9.31-3.8-2.66-2.53-3.99-5.57-3.99-9.12v-12.54c0-3.8,1.33-6.96,3.99-9.5,2.66-2.53,5.76-3.8,9.31-3.8h7.6c3.54,0,7.6-.83,12.16-2.48,4.56-1.65,8.36-3.62,11.4-5.91l2.28-1.91c2.78-2.29,4.24-5.08,4.37-8.39.12-3.3-1.08-6.23-3.61-8.78l-9.12-8.01c-2.79-2.29-6.46-4.26-11.02-5.91-4.56-1.65-8.74-2.48-12.54-2.48h-1.52c-3.55,0-6.65-1.33-9.31-4-2.66-2.67-3.99-5.78-3.99-9.35v-8.78c0-3.56,1.33-6.61,3.99-9.15,2.66-2.54,5.76-3.82,9.31-3.82h15.96c3.54,0,7.6.83,12.16,2.48,4.56,1.65,8.23,3.62,11.02,5.91l23.18,19.84c2.78,2.54,6.14,3.88,10.07,4.01,3.92.13,7.53-1.21,10.83-4.01l25.08-20.22c3.04-2.03,5.51-4.83,7.41-8.39s2.85-6.74,2.85-9.54-1.27-5.08-3.8-6.86c-2.54-1.78-5.7-2.67-9.5-2.67h-78.28c-3.55,0-7.54-.94-11.97-2.83-4.44-1.89-8.05-4.08-10.83-6.6l-9.5-9.43c-2.54-2.77-4.62-6.16-6.27-10.18-1.65-4.03-2.47-7.55-2.47-10.57ZM1079.52,230.85c0-3.8,1.27-6.96,3.8-9.5s5.7-3.8,9.5-3.8h140.6c3.54,0,6.58,1.27,9.12,3.8,2.53,2.54,3.8,5.7,3.8,9.5v92.72c0,3.54-.89,7.54-2.66,11.97-1.78,4.43-3.93,7.79-6.46,10.07l-9.12,9.5c-2.79,2.79-6.4,5.06-10.83,6.84-4.44,1.77-8.43,2.66-11.97,2.66h-112.48c-3.8,0-6.97-1.33-9.5-3.99-2.54-2.66-3.8-5.76-3.8-9.31v-120.46ZM1114.86,315.97c0,3.8,1.27,6.96,3.81,9.5,2.54,2.53,5.6,3.8,9.16,3.8h69.81c3.81,0,6.99-1.27,9.54-3.8,2.54-2.54,3.82-5.7,3.82-9.5v-50.16c0-3.54-1.28-6.58-3.82-9.12-2.54-2.53-5.72-3.8-9.54-3.8h-69.81c-3.56,0-6.62,1.27-9.16,3.8-2.54,2.54-3.81,5.58-3.81,9.12v50.16Z"/>
    <path class="cls-2" d="M1283.58,45.55c0-3.59,1.26-6.66,3.8-9.22,2.53-2.56,5.57-3.84,9.12-3.84h191.52c3.8,0,6.96-.8,9.5-2.41,2.53-1.61,3.8-3.53,3.8-5.76s1.33-4.14,3.99-5.75c2.66-1.61,5.89-2.42,9.69-2.42h8.36c3.8,0,6.96,1.14,9.5,3.42,2.53,2.28,3.8,5.07,3.8,8.36v26.98c0,3.55-1.27,6.59-3.8,9.12-2.54,2.54-5.7,3.8-9.5,3.8h-226.86c-3.55,0-6.59-1.28-9.12-3.84-2.54-2.56-3.8-5.63-3.8-9.22v-9.22ZM1515,144.21c-3.8,0-7.03-1.14-9.69-3.42-2.66-2.28-3.99-5.19-3.99-8.74,0-3.29-1.27-6.2-3.8-8.74-2.54-2.53-5.7-3.8-9.5-3.8h-155.8c-3.8,0-6.97,1.27-9.5,3.8s-3.8,5.45-3.8,8.74c0,3.55-1.27,6.46-3.8,8.74-2.54,2.28-5.7,3.42-9.5,3.42h-9.12c-3.55,0-6.59-1.26-9.12-3.8-2.54-2.53-3.8-5.57-3.8-9.12v-33.44c0-3.54,1.26-6.71,3.8-9.5,2.53-2.78,5.57-4.18,9.12-4.18h226.86c3.8,0,6.96,1.4,9.5,4.18,2.53,2.79,3.8,5.96,3.8,9.5v33.44c0,3.55-1.27,6.59-3.8,9.12-2.54,2.54-5.7,3.8-9.5,3.8h-8.36ZM1364.52,358.15c-3.29,2.02-7.41,3.61-12.35,4.75s-9.31,1.71-13.11,1.71h-42.56c-3.55,0-6.59-1.33-9.12-3.99-2.54-2.66-3.8-5.76-3.8-9.31v-8.74c0-3.8,1.26-6.97,3.8-9.5,2.53-2.54,5.57-3.8,9.12-3.8h25.08c3.54,0,7.79-.51,12.73-1.52,4.94-1.01,9.05-2.41,12.35-4.18l9.5-4.94c3.29-1.52,4.94-3.36,4.94-5.51s-1.65-4.25-4.94-6.27l-40.28-20.52c-3.29-1.77-6.08-4.56-8.36-8.36-2.28-3.8-3.42-7.47-3.42-11.02v-23.18c0-3.8-.95-6.96-2.85-9.5-1.9-2.53-4.25-3.8-7.03-3.8s-5.07-1.46-6.84-4.37c-1.78-2.91-2.66-6.14-2.66-9.69v-8.36c0-3.54.88-6.58,2.66-9.12,1.77-2.53,4.05-3.8,6.84-3.8s5.13-1.39,7.03-4.18c1.9-2.78,2.85-5.82,2.85-9.12v-1.9c0-3.54,1.34-6.65,4.03-9.31,2.69-2.66,5.96-3.99,9.8-3.99h8.45c3.59,0,6.66,1.33,9.22,3.99,2.56,2.66,3.84,5.77,3.84,9.31v1.9c0,3.3,1.39,6.33,4.17,9.12,2.78,2.79,5.94,4.18,9.48,4.18h112.17c3.79,0,7.01-1.39,9.67-4.18,2.65-2.78,3.98-5.82,3.98-9.12v-2.66c0-3.54,1.26-6.71,3.8-9.5,2.53-2.78,5.7-4.18,9.5-4.18h8.36c3.54,0,6.71,1.4,9.5,4.18,2.79,2.79,4.18,5.96,4.18,9.5v2.66c0,3.3,1.01,6.33,3.04,9.12,2.02,2.79,4.68,4.18,7.98,4.18s6.01,1.27,8.17,3.8c2.15,2.54,3.23,5.58,3.23,9.12v8.36c0,3.55-1.08,6.78-3.23,9.69-2.16,2.92-4.88,4.37-8.17,4.37s-5.96,1.27-7.98,3.8c-2.03,2.54-3.04,5.7-3.04,9.5v23.18c0,3.55-1.21,7.22-3.61,11.02-2.41,3.8-5.26,6.59-8.55,8.36l-39.14,20.14c-3.3,2.02-4.88,4.11-4.75,6.27.12,2.15,1.83,4.12,5.13,5.89l10.26,4.94c3.29,1.77,7.41,3.17,12.35,4.18,4.94,1.01,9.18,1.52,12.73,1.52h24.7c3.8,0,6.96,1.26,9.5,3.8,2.53,2.53,3.8,5.7,3.8,9.5v8.74c0,3.54-1.27,6.65-3.8,9.31-2.54,2.66-5.7,3.99-9.5,3.99h-42.56c-3.55,0-7.73-.57-12.54-1.71-4.82-1.14-8.87-2.73-12.16-4.75l-34.58-17.1c-3.55-2.03-7.54-3.04-11.97-3.04s-8.3,1.01-11.59,3.04l-33.44,17.1ZM1397.42,287.09c3.54,1.52,7.58,2.28,12.13,2.28s8.59-.76,12.12-2.28l44.72-21.66c3.53-2.03,6.5-4.88,8.9-8.55,2.4-3.67,3.6-7.28,3.6-10.83v-2.28c0-3.8-1.33-6.96-3.98-9.5-2.65-2.53-5.88-3.8-9.67-3.8h-112.17c-3.54,0-6.7,1.27-9.48,3.8-2.78,2.54-4.17,5.7-4.17,9.5v2.28c0,3.55,1.2,7.16,3.6,10.83,2.4,3.67,5.37,6.52,8.91,8.55l45.48,21.66Z"/>
    <path class="cls-2" d="M1801.17,15.39c3.54,0,6.63,1.28,9.29,3.84,2.65,2.56,3.98,5.63,3.98,9.22v43.18c0,3.55.5,6.65,1.52,9.31,1.01,2.66,2.53,3.99,4.56,3.99,1.77,0,3.23,1.27,4.37,3.8,1.14,2.54,1.71,5.58,1.71,9.12v8.36c0,4.06-.95,7.35-2.85,9.88-1.9,2.54-4.25,3.8-7.02,3.8s-5.99-1.01-9.62-3.04c-3.63-2.02-6.83-4.05-9.58-6.08l-9.03-9.5c-2.51-2.78-4.7-6.39-6.58-10.83-1.88-4.43-2.82-8.42-2.82-11.97v-14.82c0-3.54-1.26-6.65-3.79-9.31-2.53-2.66-5.56-4-9.1-4l-130.78.39c-3.54,0-6.64,1.33-9.29,3.99-2.65,2.66-3.98,5.77-3.98,9.31v14.44c0,3.55-.9,7.54-2.69,11.97-1.79,4.44-3.97,8.05-6.53,10.83l-9.21,9.5c-2.82,2.54-6.15,4.69-9.99,6.46-3.84,1.78-7.03,2.66-9.57,2.66-2.79,0-5.13-1.26-7.03-3.8-1.9-2.53-2.85-5.82-2.85-9.88v-8.36c0-3.54.57-6.58,1.71-9.12,1.14-2.53,2.59-3.8,4.37-3.8,2.02,0,3.61-1.33,4.75-3.99,1.14-2.66,1.71-5.76,1.71-9.31V28.45c0-3.59,1.32-6.66,3.98-9.22,2.65-2.56,5.75-3.84,9.29-3.84h201.07ZM1671.18,329.27c3.54,0,6.71-1.27,9.5-3.8,2.79-2.54,4.18-5.7,4.18-9.5v-35.34c0-3.8-1.4-7.03-4.18-9.69-2.79-2.66-5.96-3.99-9.5-3.99h-83.98c-3.55,0-6.59-1.25-9.12-3.76-2.54-2.51-3.8-5.63-3.8-9.4v-8.65c0-3.5,1.26-6.64,3.8-9.39,2.53-2.75,5.57-4.14,9.12-4.14h83.98c3.54,0,6.71-1.27,9.5-3.82,2.79-2.55,4.18-5.61,4.18-9.19v-29.08c0-3.82-1.4-7.01-4.18-9.56-2.79-2.55-5.96-3.83-9.5-3.83h-83.98c-3.55,0-6.59-1.33-9.12-3.99-2.54-2.66-3.8-5.89-3.8-9.69v-8.74c0-3.54,1.26-6.58,3.8-9.12,2.53-2.53,5.57-3.8,9.12-3.8h226.48c3.8,0,6.96,1.27,9.5,3.8,2.53,2.54,3.8,5.58,3.8,9.12v8.74c0,3.8-1.27,7.03-3.8,9.69-2.54,2.66-5.7,3.99-9.5,3.99h-80.56c-3.55,0-6.59,1.28-9.12,3.83-2.54,2.55-3.8,5.74-3.8,9.56v29.08c0,3.57,1.26,6.63,3.8,9.19,2.53,2.55,5.57,3.82,9.12,3.82h80.56c3.8,0,6.96,1.38,9.5,4.14,2.53,2.75,3.8,5.89,3.8,9.39v8.65c0,3.76-1.27,6.89-3.8,9.4-2.54,2.5-5.7,3.76-9.5,3.76h-80.56c-3.55,0-6.59,1.33-9.12,3.99-2.54,2.66-3.8,5.89-3.8,9.69v35.34c0,3.8,1.26,6.96,3.8,9.5s5.57,3.8,9.12,3.8h80.56c3.8,0,6.96,1.26,9.5,3.8,2.53,2.53,3.8,5.7,3.8,9.5v8.74c0,3.54-1.27,6.65-3.8,9.31-2.54,2.66-5.7,3.99-9.5,3.99h-226.48c-3.55,0-6.59-1.33-9.12-3.99-2.54-2.66-3.8-5.76-3.8-9.31v-8.74c0-3.8,1.26-6.97,3.8-9.5,2.53-2.54,5.57-3.8,9.12-3.8h83.98Z"/>
    <path class="cls-2" d="M1900.32,15.77c3.54,0,6.65,1.27,9.31,3.8,2.66,2.54,3.99,5.58,3.99,9.12v41.04c0,3.8.63,7.03,1.9,9.69,1.26,2.66,2.91,3.99,4.94,3.99,2.28,0,4.18,1.27,5.7,3.8,1.52,2.54,2.28,5.7,2.28,9.5v8.36c0,3.8-.76,7.03-2.28,9.69-1.52,2.66-3.42,3.99-5.7,3.99-2.03,0-3.67,1.27-4.94,3.8-1.27,2.54-1.9,5.7-1.9,9.5v219.26c0,3.54-1.33,6.65-3.99,9.31-2.66,2.66-5.76,3.99-9.31,3.99h-5.7c-3.55,0-6.59-1.33-9.12-3.99-2.54-2.66-3.8-5.76-3.8-9.31v-219.26c0-3.8-.89-6.96-2.66-9.5-1.78-2.53-3.67-3.8-5.7-3.8-2.28,0-4.25-1.33-5.89-3.99-1.65-2.66-2.47-5.89-2.47-9.69v-8.36c0-3.8.82-6.96,2.47-9.5,1.64-2.53,3.61-3.8,5.89-3.8,2.02,0,3.92-1.33,5.7-3.99,1.77-2.66,2.66-5.89,2.66-9.69V28.69c0-3.54,1.26-6.58,3.8-9.12,2.53-2.53,5.57-3.8,9.12-3.8h5.7ZM2002.54,354.35c-2.54,2.78-5.96,5.19-10.26,7.22-4.31,2.02-8.24,3.04-11.78,3.04h-31.92c-3.55,0-6.59-1.33-9.12-3.99-2.54-2.66-3.8-5.76-3.8-9.31v-8.74c0-3.8,1.26-6.97,3.8-9.5,2.53-2.54,5.57-3.8,9.12-3.8h25.08c3.54,0,6.58-1.27,9.12-3.8,2.53-2.54,3.8-5.7,3.8-9.5V92.53c0-3.8-1.27-6.96-3.8-9.5-2.54-2.53-5.58-3.8-9.12-3.8h-25.08c-3.55,0-6.59-1.26-9.12-3.8-2.54-2.53-3.8-5.7-3.8-9.5v-9.12c0-3.54,1.26-6.58,3.8-9.12s5.57-3.8,9.12-3.8h25.08c3.54,0,6.58-1.26,9.12-3.8,2.53-2.53,3.8-5.57,3.8-9.12v-2.28c0-3.54,1.26-6.58,3.8-9.12,2.53-2.53,5.7-3.8,9.5-3.8h5.32c3.8,0,6.96,1.27,9.5,3.8,2.53,2.54,3.8,5.58,3.8,9.12v2.28c0,3.55,1.28,6.59,3.83,9.12,2.55,2.54,5.74,3.8,9.57,3.8h23.36c3.57,0,6.64,1.27,9.19,3.8,2.55,2.54,3.83,5.58,3.83,9.12v266.38c0,3.54-.83,7.6-2.49,12.16-1.66,4.56-3.76,8.23-6.32,11.02l-7.28,7.98c-2.04,2.78-5.11,5.19-9.19,7.22-4.08,2.02-7.66,3.04-10.72,3.04s-5.81-1.33-8.24-3.99c-2.43-2.66-3.64-5.76-3.64-9.31v-8.74c0-3.8.76-6.97,2.28-9.5,1.52-2.54,3.42-3.8,5.7-3.8,2.03,0,3.86-1.27,5.51-3.8,1.64-2.54,2.47-5.7,2.47-9.5V92.53c0-3.8-.89-6.96-2.66-9.5-1.78-2.53-4.05-3.8-6.84-3.8-2.28,0-4.25,1.27-5.89,3.8-1.65,2.54-2.47,5.7-2.47,9.5v230.66c0,3.54-.83,7.6-2.47,12.16-1.65,4.56-3.87,8.23-6.65,11.02l-6.84,7.98ZM1960.74,301.15c-2.79,2.79-5.83,5.19-9.12,7.22-3.29,2.03-6.08,3.04-8.36,3.04-2.03,0-3.8-1.27-5.32-3.8-1.52-2.54-2.28-5.7-2.28-9.5v-8.74c0-3.54.38-6.65,1.14-9.31.76-2.66,1.77-3.99,3.04-3.99,1.52,0,2.72-1.26,3.61-3.8.88-2.53,1.33-5.57,1.33-9.12V117.23c0-3.54,1.33-6.58,3.99-9.12,2.66-2.53,5.76-3.8,9.31-3.8h5.32c3.54,0,6.65,1.27,9.31,3.8,2.66,2.54,3.99,5.58,3.99,9.12v152.76c0,3.55-.89,7.6-2.66,12.16-1.78,4.56-3.8,8.24-6.08,11.02l-7.22,7.98ZM2096.02,43.89c3.8,0,6.96,1.27,9.5,3.8,2.53,2.54,3.8,5.58,3.8,9.12v259.16c0,3.8.44,6.96,1.33,9.5.88,2.53,1.96,3.8,3.23,3.8s2.34,1.26,3.23,3.8c.88,2.53,1.33,5.7,1.33,9.5v8.74c0,3.54-.89,6.65-2.66,9.31-1.78,2.66-3.67,3.99-5.7,3.99s-4.69-1.02-7.98-3.04c-3.3-2.03-6.34-4.44-9.12-7.22l-6.46-7.98c-2.79-2.79-5.01-6.46-6.65-11.02-1.65-4.56-2.47-8.62-2.47-12.16V56.81c0-3.54,1.26-6.58,3.8-9.12s5.7-3.8,9.5-3.8h5.32Z"/>
    <path class="cls-2" d="M2155.68,94.43c0-3.54.57-6.65,1.71-9.31,1.14-2.66,2.59-3.99,4.37-3.99,2.02,0,3.61-1.26,4.75-3.8,1.14-2.53,1.71-5.7,1.71-9.5V28.69c0-3.54,1.33-6.58,3.99-9.12,2.66-2.53,5.76-3.8,9.31-3.8h199.5c3.54,0,6.65,1.27,9.31,3.8,2.66,2.54,3.99,5.58,3.99,9.12v39.14c0,3.8.58,6.97,1.76,9.5,1.18,2.54,2.81,3.8,4.9,3.8,1.83,0,3.33,1.33,4.5,3.99,1.17,2.66,1.76,5.77,1.76,9.31v8.36c0,3.8-.96,6.97-2.87,9.5-1.92,2.54-4.28,3.8-7.09,3.8s-6.06-.88-9.77-2.66c-3.7-1.77-6.96-4.05-9.77-6.84l-8.81-8.74c-2.81-2.78-5.04-6.4-6.7-10.83-1.66-4.43-2.49-8.42-2.49-11.97v-11.4c0-3.54-1.39-6.65-4.18-9.31-2.79-2.66-5.96-3.99-9.5-3.99h-129.58c-3.55,0-6.71,1.33-9.5,3.99-2.79,2.66-4.18,5.77-4.18,9.31v11.4c0,3.55-.83,7.54-2.47,11.97-1.65,4.44-3.74,8.05-6.27,10.83l-9.12,8.74c-2.79,2.79-6.02,5.07-9.69,6.84-3.68,1.77-6.91,2.66-9.69,2.66s-5.13-1.26-7.03-3.8c-1.9-2.53-2.85-5.7-2.85-9.5v-8.36ZM2175.84,261.25c1.02-3.54.64-6.58-1.14-9.12-1.78-2.53-4.19-3.8-7.23-3.8-3.55,0-6.41-1.34-8.56-4.03-2.16-2.69-3.23-5.82-3.23-9.41v-8.07c0-3.84,1.26-7.1,3.8-9.79,2.53-2.69,5.58-4.04,9.13-4.04h225.31c3.55,0,6.66,1.35,9.33,4.04,2.66,2.69,4,5.96,4,9.79v8.07c0,3.59-1.35,6.72-4.04,9.41s-5.83,4.03-9.41,4.03h-166.3c-3.8,0-7.22,1.26-10.26,3.78-3.04,2.52-5.07,5.55-6.08,9.08l-11.78,55.22c-.76,3.53-.07,6.55,2.09,9.08,2.15,2.52,5,3.78,8.55,3.78h148.58c3.8,0,6.96-1.27,9.5-3.8,2.53-2.54,3.8-5.7,3.8-9.5v-31.16c0-3.8,1.28-6.96,3.84-9.5,2.56-2.53,5.76-3.8,9.6-3.8h8.46c3.58,0,6.72,1.27,9.41,3.8,2.69,2.54,4.04,5.7,4.04,9.5v38.38c0,3.54-.89,7.56-2.67,12.04-1.78,4.47-4.06,7.87-6.85,10.17l-9.51,9.61c-2.29,2.81-5.65,5.12-10.09,6.91s-8.44,2.69-11.99,2.69h-188.39c-3.56,0-6.73-1.33-9.52-3.99s-4.19-5.76-4.19-9.31v-22.42c0-3.55.31-7.86.95-12.92.64-5.07,1.46-9.5,2.48-13.3l8.37-41.42ZM2156.06,151.43c0-3.54,1.26-6.58,3.8-9.12s5.57-3.8,9.12-3.8h224.96c3.54,0,6.65,1.27,9.31,3.8,2.66,2.54,3.99,5.58,3.99,9.12v8.74c0,3.55-1.33,6.59-3.99,9.12-2.66,2.54-5.77,3.8-9.31,3.8h-224.96c-3.55,0-6.59-1.26-9.12-3.8-2.54-2.53-3.8-5.57-3.8-9.12v-8.74Z"/>
  </g>
  <g>
    <rect class="cls-1" x="67.7" y="212.58" width="473.14" height="152.03"/>
    <path class="cls-3" d="M249.4,223.06v46.5l-5.26,5.26h-11.88l-5.26-5.26v-18.07h6.55v16.78h9.29v-38.66h-11.23v-6.55h17.78Z"/>
    <path class="cls-3" d="M275.18,222.98h6.55v46.51l-5.18,5.26h-18.07l-5.26-5.26v-46.51h6.55v45.22h15.41v-45.22Z"/>
    <path class="cls-3" d="M316.87,274.82h-8.28l-7.49-17.71-7.42,17.71h-8.06v-6.55h3.96l8.06-19.44-8.06-19.51h-3.96v-6.55h8.06l7.42,17.86,7.49-17.86h8.28v6.55h-4.18l-8.14,19.51,8.14,19.44h4.18v6.55Z"/>
    <path class="cls-3" d="M320.83,223.13h28.44v6.55h-21.89v18h21.89v6.55h-21.89v20.59h-6.55v-51.7Z"/>
    <path class="cls-3" d="M381.6,268.13v6.55h-23.27l-5.24-5.26v-46.44h28.51v6.55h-21.96v15.41h21.96v6.55h-21.96v16.63h21.96Z"/>
    <path class="cls-3" d="M100.55,329.54v-13.54h-15.41v38.66h15.41v-12.82h6.55v14.11l-5.26,5.26h-18l-5.26-5.26v-41.26l5.26-5.26h18l5.26,5.26v14.83h-6.55Z"/>
    <path class="cls-3" d="M127.91,341.71v-19.15h6.55v36.79l-5.26,5.26h-17.57v-6.55h16.27v-9.79h-11.66l-5.26-5.26v-20.45h6.55v19.15h10.37Z"/>
    <path class="cls-3" d="M161.75,331.06v24.77l-5.26,5.26h-18.14v-51.7h6.55v16.42h11.59l5.26,5.26ZM144.9,332.35v22.18h10.3v-22.18h-10.3Z"/>
    <path class="cls-3" d="M189.11,348.05h-16.85v6.55h16.85v6.55h-18.22l-5.18-5.27v-24.89l5.18-5.19h13.03l5.18,5.2v17.05ZM172.26,342.29h10.3v-9.94h-10.3v9.94Z"/>
    <path class="cls-3" d="M199.62,361.15h-6.55v-29.95l5.26-5.26h6.26v6.55h-4.97v28.66Z"/>
    <path class="cls-3" d="M233.24,326.3v-11.45h-15.41v17.14h16.78l5.18,5.2v18.77l-5.18,5.27h-18.07l-5.26-5.26v-12.02h6.55v10.73h15.41v-16.13h-16.7l-5.26-5.18v-19.8l5.18-5.26h18.14l5.18,5.26v12.74h-6.55Z"/>
    <path class="cls-3" d="M267.08,348.05h-16.85v6.55h16.85v6.55h-18.22l-5.18-5.27v-24.89l5.18-5.19h13.03l5.18,5.2v17.05ZM250.23,342.29h10.3v-9.94h-10.3v9.94Z"/>
    <path class="cls-3" d="M276.3,325.94h18.14v6.55h-16.85v22.1h16.85v6.55h-18.14l-5.26-5.26v-24.7l5.26-5.26Z"/>
    <path class="cls-3" d="M315.32,325.73h6.55v30.24l-5.18,5.26h-13.03l-5.26-5.26v-30.24h6.55v28.94h10.37v-28.94Z"/>
    <path class="cls-3" d="M332.31,361.15h-6.55v-29.95l5.26-5.26h6.26v6.55h-4.97v28.66Z"/>
    <path class="cls-3" d="M347.29,309.53l3.31,3.31-3.31,3.31-3.31-3.31,3.31-3.31ZM344.05,320.11h6.55v41.11h-6.55v-41.11Z"/>
    <path class="cls-3" d="M375.3,354.67v6.55h-9.94l-5.26-5.26v-23.47h-5.69v-6.55h5.69v-8.64h6.55v8.64h8.64v6.55h-8.64v22.18h8.64Z"/>
    <path class="cls-3" d="M396.1,341.71v-19.15h6.55v36.79l-5.26,5.26h-17.57v-6.55h16.27v-9.79h-11.66l-5.26-5.26v-20.45h6.55v19.15h10.37Z"/>
    <path class="cls-3" d="M447.94,328.9v-12.82h-15.41v38.59h15.41v-13.39h-7.42v-6.55h13.97v21.24l-5.18,5.26h-18.07l-5.26-5.18v-41.26l5.26-5.26h18.07l5.18,5.26v14.11h-6.55Z"/>
    <path class="cls-3" d="M475.3,325.73h6.55v30.24l-5.18,5.26h-13.03l-5.26-5.26v-30.24h6.55v28.94h10.37v-28.94Z"/>
    <path class="cls-3" d="M489.05,309.53l3.31,3.31-3.31,3.31-3.31-3.31,3.31-3.31ZM485.81,320.11h6.55v41.11h-6.55v-41.11Z"/>
    <path class="cls-3" d="M496.18,309.45h6.55v51.77h-6.55v-51.77Z"/>
    <path class="cls-3" d="M511.8,325.87h11.59v-16.34h6.55v51.7h-18.14l-5.26-5.26v-24.91l5.26-5.18ZM513.1,354.67h10.3v-22.25h-10.3v22.25Z"/>
  </g>
</svg>