<?xml version="1.0" encoding="UTF-8"?>
<svg id="_图层_1" data-name="图层 1" xmlns="http://www.w3.org/2000/svg" viewBox="0 0 878.35 153.83">
  <defs>
    <style>
      .cls-1 {
        fill: none;
      }

      .cls-2 {
        fill: #ff0c31;
      }
    </style>
  </defs>
  <polygon points="66.33 92.29 64.79 82.17 75.13 80.63 80.85 12.98 10.78 14.08 14.63 89.54 4.18 90.09 0 9.24 5.06 3.74 86.46 2.53 91.74 8.14 85.14 85.58 80.74 90.09 66.33 92.29"/>
  <polygon class="cls-2" points="57.53 56.65 70.4 68.53 63.25 76.12 52.8 66.44 41.8 89.43 32.45 85.03 44.88 59.07 38.06 52.69 28.49 76.34 19.03 72.49 29.92 45.21 12.98 29.37 19.91 21.78 34.1 34.98 40.7 18.37 50.38 22.22 42.13 42.46 49.5 49.28 65.45 15.84 74.8 20.46 57.53 56.65"/>
  <polygon points="113.63 41.47 127.93 40.81 133.65 24.31 143.55 27.61 139.15 40.26 195.58 37.4 196.13 47.85 135.52 50.93 132.33 60.17 151.58 67.43 187.22 51.7 191.4 61.16 165.33 72.6 198.22 85.03 194.48 94.71 151.8 78.54 114.62 94.93 110.44 85.58 138.16 73.37 123.97 67.98 120.89 61.6 124.3 51.48 114.07 51.92 113.63 41.47"/>
  <polygon class="cls-2" points="186.67 31.13 189.64 19.58 123.64 20.46 124.85 29.37 114.62 30.8 112.53 15.95 117.59 10.12 150.59 9.68 148.17 4.18 157.63 0 161.81 9.57 196.35 9.13 201.3 15.62 196.68 33.77 186.67 31.13"/>
  <polygon class="cls-2" points="237.82 36.08 239.8 92.84 229.57 93.17 227.59 37.4 216.92 38.83 215.49 28.71 227.15 27.06 226.38 4.73 236.72 4.51 237.38 25.63 249.15 23.98 250.58 34.32 237.82 36.08"/>
  <polygon points="251.57 66.22 242.44 61.27 255.2 37.73 264.44 42.68 251.57 66.22"/>
  <polygon points="284.24 17.27 301.73 17.71 306.68 23.76 302.94 46.86 316.14 58.41 309.32 66.22 300.96 58.96 295.9 90.53 288.97 94.49 272.8 88.44 276.54 78.87 286.77 82.61 295.57 27.94 281.05 27.61 261.03 93.06 251.13 89.98 270.27 27.39 255.97 27.06 256.19 16.61 273.46 17.05 278.63 .33 288.53 3.41 284.24 17.27"/>
  <polygon class="cls-2" points="419.21 39.93 368.5 18.04 334.95 45.43 328.46 37.51 372.9 .88 379.5 9.02 377.63 10.56 423.39 30.47 419.21 39.93"/>
  <polygon points="368.83 62.81 355.3 81.29 395.78 73.81 392.92 69.41 401.61 63.69 415.8 85.58 407.11 91.19 401.94 83.27 344.41 93.94 339.24 85.69 355.08 63.91 334.07 65.67 333.3 55.33 408.1 49.17 408.87 59.51 368.83 62.81"/>
  <polygon points="352.55 45.54 352 35.09 394.02 32.67 394.57 43.12 352.55 45.54"/>
  <polygon class="cls-2" points="438.9 87.45 433.07 81.84 440.55 12.1 446.38 7.48 503.03 15.84 501.6 26.18 450.23 18.59 444.07 76.45 505.56 69.85 506.66 80.19 438.9 87.45"/>
  <polygon points="512.71 86.46 511.06 28.49 521.4 28.16 521.73 41.69 546.81 29.81 551.21 39.38 522.06 53.02 523.16 86.24 512.71 86.46"/>
  <polygon points="597.19 88.33 554.62 80.41 550.44 74.58 555.72 35.42 560.34 31.02 592.57 28.38 597.63 31.13 606.98 49.61 603.35 56.98 569.14 64.13 566.94 54.12 594.55 48.18 589.93 39.05 565.29 40.92 561.33 71.17 599.17 78.21 597.19 88.33"/>
  <polygon points="672.43 86.35 661.43 83.27 659.45 80.96 614.02 88.22 608.08 81.95 614.46 56.76 619.41 52.8 654.17 52.8 651.86 35.64 612.26 45.32 609.73 35.31 654.94 24.2 661.32 28.6 667.48 74.25 675.18 76.45 672.43 86.35"/>
  <polygon class="cls-2" points="620.07 76.67 656.59 70.84 655.6 63.25 623.48 63.25 620.07 76.67"/>
  <polygon points="706.31 46.42 703.78 73.48 725.34 79.64 722.59 89.54 696.74 82.28 693 76.78 695.75 47.19 674.08 48.73 673.2 38.28 696.74 36.63 697.84 25.08 708.18 26.07 707.3 35.97 732.05 34.21 732.71 44.44 706.31 46.42"/>
  <polygon points="747.45 86.13 737.11 84.92 742.5 41.25 752.84 42.46 747.45 86.13"/>
  <polygon class="cls-2" points="743.16 34.87 739.86 22.55 749.87 19.8 753.17 32.12 743.16 34.87"/>
  <polygon points="783.31 83.27 774.18 81.84 757.57 27.94 767.47 24.86 781 68.75 809.05 29.81 817.41 35.86 783.31 83.27"/>
  <polygon points="868.56 88.33 825.99 80.41 821.81 74.58 827.09 35.42 831.71 31.02 863.94 28.38 869 31.13 878.35 49.61 874.72 56.98 840.51 64.13 838.31 54.12 865.92 48.18 861.3 39.05 836.66 40.92 832.7 71.17 870.54 78.21 868.56 88.33"/>
  <g>
    <rect class="cls-1" x="120.2" y="112.69" width="647.43" height="41.14"/>
    <path d="M304.96,142.32l-.59-1.89,4.91-1.43-.29-9.66-3.25-.25.17-1.95,8.23.57-.13,2-3.02-.21.31,10.21-.71.99-5.63,1.64Z"/>
    <path d="M328.44,142.05l-5.82-6.15-6.26,6.17-1.39-1.41,6.28-6.19-4.7-5,1.45-1.32,4.66,4.93,5.75-5.67,1.39,1.41-5.77,5.69,5.84,6.17-1.43,1.36Z"/>
    <path d="M341.5,142.07l-9.64-.69-.92-.99-.23-12.56,1.97-.06.23,11.68,7.77.59,1.11-12.62,1.95.17-1.18,13.59-1.07.9Z"/>
    <path d="M347.13,134.11l9.11-.15.02,1.95-9.28.17-.42,5.92-1.97-.15,1.01-13.5.99-.9,10.56.34-.06,1.97-9.6-.29-.36,4.64Z"/>
    <path d="M359.05,142.22l-1.07-1.07,1.01-12.96,1.01-.92,10.58.34-.08,1.97-9.62-.29-.31,4.12,9.09-.15.04,2-9.3.15-.36,4.77,10.75-.88.17,1.97-11.91.97Z"/>
    <path d="M383.41,142.36l-1.11-1.07,1.43-13.31,1.11-.88,10.81,1.6-.27,1.97-9.81-1.45-1.18,11.05,11.74-1.26.21,1.97-12.94,1.39Z"/>
    <path d="M398.77,143.22l-1.53-1.26,3.55-4.3-3.55-4.3,1.53-1.26,3.32,4.01,4.14-5.02,1.51,1.26-8.97,10.88Z"/>
    <path d="M408.72,142.09l-1.18-1.05.8-12.01,2,.13-.25,3.53,6.24.55.9,1.05-.42,5.54-.78.88-7.31,1.39ZM409.96,134.64l-.36,5.29,5.29-1.01.29-3.8-5.23-.48Z"/>
    <path d="M426.99,142.53l-8.13-1.51-.8-1.11,1.01-7.48.88-.84,6.15-.5.97.53,1.78,3.53-.69,1.41-6.53,1.37-.42-1.91,5.27-1.13-.88-1.74-4.7.36-.76,5.77,7.22,1.34-.38,1.93Z"/>
    <path d="M429.38,142.17l-.31-11.07,1.97-.06.06,2.58,4.79-2.27.84,1.83-5.56,2.6.21,6.34-2,.04Z"/>
    <path d="M447.28,142.28l-.19-1.95,11.74-1.03-.95-4.26-9.09,1.05-1.09-1.01.29-6.99,1.07-.94,11.07,1.03-.17,1.97-10.04-.92-.21,4.77,8.82-.99,1.07.76,1.41,6.22-.9,1.22-12.83,1.09Z"/>
    <path d="M470.77,142.53l-8.13-1.51-.8-1.11,1.01-7.48.88-.84,6.15-.5.97.53,1.79,3.53-.69,1.41-6.53,1.37-.42-1.91,5.27-1.13-.88-1.74-4.7.36-.76,5.77,7.22,1.34-.38,1.93Z"/>
    <path d="M473.92,141.98l-1.07-1.07.97-9.24,1.13-.86,6.74,1.09-.31,1.95-5.69-.92-.76,6.95,7.01-.84.23,1.97-8.25.97Z"/>
    <path d="M493.08,141.73l-2.27-1.34-6.64,1.09-1.16-1.03.5-8.48,1.97.1-.42,7.25,5.27-.84.44-6.53,1.99.17-.46,6.87,1.79,1.07-1.03,1.68Z"/>
    <path d="M494.23,142.17l-.32-11.07,1.97-.06.06,2.58,4.79-2.27.84,1.83-5.57,2.6.21,6.34-2,.04Z"/>
    <path d="M503.41,142.11l-1.97-.23,1.03-8.34,1.97.23-1.03,8.34ZM502.59,132.32l-.63-2.35,1.91-.53.63,2.35-1.91.52Z"/>
    <path d="M511.66,134.53l-.48,5.17,4.12,1.18-.53,1.89-4.93-1.39-.71-1.05.52-5.65-4.14.29-.17-2,4.49-.32.21-2.21,1.97.19-.17,1.89,4.73-.34.13,1.95-5.04.38Z"/>
    <path d="M519.12,143.22l-1.53-1.26,3.55-4.3-3.55-4.3,1.53-1.26,3.32,4.01,4.14-5.02,1.51,1.26-8.97,10.88Z"/>
    <path d="M539.44,142.4l-1.05-1.05.97-13.38,1.05-.92,11.4.76-.13,1.97-10.39-.67-.82,11.28,10-.5-.36-3.8-5.86-.25.08-2,6.72.32.95.88.55,5.69-.92,1.09-12.18.59Z"/>
    <path d="M563.45,141.73l-2.27-1.34-6.64,1.09-1.16-1.03.5-8.48,1.97.1-.42,7.25,5.27-.84.44-6.53,1.99.17-.46,6.87,1.79,1.07-1.03,1.68Z"/>
    <path d="M566.26,142.11l-1.97-.23,1.03-8.34,1.97.23-1.03,8.34ZM565.44,132.32l-.63-2.35,1.91-.53.63,2.35-1.91.52Z"/>
    <path d="M570.17,142.47l-1.97-.27,1.81-12.68,1.95.25-1.79,12.71Z"/>
    <path d="M573.86,142.09l-1.07-1.11.97-7.25,1.13-.84,6.17.99-.34-4.7,1.99-.13.74,11.05-.88,1.05-8.71.94ZM575.59,134.99l-.67,5,6.51-.69-.23-3.4-5.61-.9Z"/>
  </g>
</svg>